<?xml version="1.0" encoding="UTF-8" standalone="no"?>
<svg
   xmlns:dc="http://purl.org/dc/elements/1.1/"
   xmlns:cc="http://creativecommons.org/ns#"
   xmlns:rdf="http://www.w3.org/1999/02/22-rdf-syntax-ns#"
   xmlns:svg="http://www.w3.org/2000/svg"
   xmlns="http://www.w3.org/2000/svg"
   version="1.1"
   viewBox="0 0 24 24"
   id="svg1424">
  <metadata
     id="metadata1430">
    <rdf:RDF>
      <cc:Work
         rdf:about="">
        <dc:format>image/svg+xml</dc:format>
        <dc:type
           rdf:resource="http://purl.org/dc/dcmitype/StillImage" />
        <dc:title>unlike</dc:title>
      </cc:Work>
    </rdf:RDF>
  </metadata>
  <defs
     id="defs1428" />
  <title
     id="title1420">unlike</title>
  <path
     id="path1422"
     d="M 7.0507812 1.9980469 C 5.3887813 1.9980469 3.722125 2.6333437 2.453125 3.9023438 C 1.184125 5.1713438 0.54882812 6.838 0.54882812 8.5 C 0.54882812 10.162 1.184125 11.828656 2.453125 13.097656 L 11.292969 21.9375 C 11.683969 22.3285 12.317031 22.3285 12.707031 21.9375 L 21.546875 13.097656 C 22.815875 11.828656 23.450172 10.163953 23.451172 8.5019531 C 23.452172 6.8399531 22.817875 5.1733437 21.546875 3.9023438 C 20.277875 2.6333438 18.613172 1.9990469 16.951172 1.9980469 C 15.289172 1.9970469 13.623516 2.6313906 12.353516 3.9003906 L 12 4.2558594 L 11.646484 3.9023438 C 10.377484 2.6333437 8.7127813 1.9980469 7.0507812 1.9980469 z M 7.0507812 3.9980469 C 8.2047812 3.9980469 9.3534219 4.4374062 10.232422 5.3164062 L 10.939453 6.0234375 C 10.85026 5.9383242 10.830307 5.9326276 10.714844 5.8203125 C 9.8993615 5.0270633 9.5600544 4.7552436 9.0839844 4.5136719 C 7.9457688 3.9361084 6.5641142 3.872687 5.3828125 4.3457031 C 4.0239198 4.8898301 2.9992443 6.1068153 2.671875 7.5644531 C 2.5715683 8.011077 2.5541696 8.8178574 2.6347656 9.2636719 C 2.7518391 9.9112613 3.058023 10.62725 3.4394531 11.146484 C 3.5554198 11.304348 5.4388534 13.223693 7.8105469 15.599609 C 10.10283 17.895973 11.98851 19.775391 12 19.775391 C 12.042935 19.775391 20.247644 11.534591 20.441406 11.296875 C 21.161292 10.413682 21.524402 9.2045876 21.40625 8.0761719 C 21.207316 6.1762458 19.884989 4.63823 18.037109 4.1582031 C 17.265296 3.9577081 16.314052 3.992235 15.548828 4.2480469 C 14.746912 4.5161252 14.319045 4.8146113 13.285156 5.8203125 C 13.169693 5.9326276 13.14974 5.9383241 13.060547 6.0234375 L 13.769531 5.3144531 C 14.648531 4.4354531 15.798172 3.9970469 16.951172 3.9980469 C 18.104172 3.9990469 19.253812 4.4374063 20.132812 5.3164062 C 21.012812 6.1974063 21.451172 7.3489531 21.451172 8.5019531 C 21.451172 9.6549531 21.011812 10.804594 20.132812 11.683594 L 12 19.816406 L 3.8671875 11.683594 C 2.9881875 10.804594 2.5488281 9.654 2.5488281 8.5 C 2.5488281 7.346 2.9881875 6.1954063 3.8671875 5.3164062 C 4.7461875 4.4374063 5.8967813 3.9980469 7.0507812 3.9980469 z M 11.433594 6.4707031 C 11.776466 6.712545 12.219299 6.7125575 12.5625 6.4726562 C 12.356351 6.6275992 12.208561 6.6835938 12 6.6835938 C 11.790724 6.6835938 11.641081 6.6271409 11.433594 6.4707031 z " />
</svg>
